<svg xmlns="http://www.w3.org/2000/svg" xmlns:xlink="http://www.w3.org/1999/xlink" viewBox="0 0 196.99 196.99"><defs><style>.a{fill:url(#a);}.b{fill:#3c3c3b;}.c{fill:#afca0b;}.d,.e{fill:#fff;}.e{fill-rule:evenodd;}</style><radialGradient id="a" cx="98.5" cy="98.5" r="98.5" gradientUnits="userSpaceOnUse"><stop offset="0" stop-color="#afca0b"/><stop offset="1" stop-color="#90ae00"/></radialGradient></defs><rect class="a" width="196.99" height="196.99"/><circle class="b" cx="99.5" cy="102.5" r="72.27"/><circle class="c" cx="98.5" cy="98.5" r="68.25"/><path class="d" d="M98.5,171A72.51,72.51,0,1,1,171,98.5,72.59,72.59,0,0,1,98.5,171Zm0-136.5a64,64,0,1,0,64,64A64.07,64.07,0,0,0,98.5,34.5Z"/><path class="d" d="M86.53,96.54A3.84,3.84,0,1,0,82.7,92.7,3.84,3.84,0,0,0,86.53,96.54Z"/><path class="d" d="M109.56,96.54a3.84,3.84,0,1,0-3.84-3.84A3.84,3.84,0,0,0,109.56,96.54Z"/><path class="e" d="M142.61,99.06a2,2,0,0,0-1.71-.26l-10.4,3.41a2,2,0,0,0,1.2,3.72l4.07-1.34c-3,4.44-10.46,13.81-18.92,12.38a3.48,3.48,0,0,1-3-2.43c-.45-1.7.69-3.74,3.09-5.67,9.32-7.38,14.43-17.17,14.43-27.54a33.38,33.38,0,1,0-66.75,0c0,10.37,5.14,20.16,14.43,27.53,2.4,1.91,3.52,4,3.1,5.68a3.54,3.54,0,0,1-3,2.43c-8.43,1.43-15.9-7.94-18.92-12.38L64.31,106a2,2,0,0,0,1.2-3.72L55.1,98.8a1.84,1.84,0,0,0-1.7.26,1.91,1.91,0,0,0-.84,1.51L52,111.89a2,2,0,0,0,1.84,2H54a2,2,0,0,0,1.95-1.88l.22-4.61c3.32,4.86,11.25,14.68,21.29,14.68a13.8,13.8,0,0,0,2.6-.23,8.48,8.48,0,0,0,7-6.15c1-3.71-.81-7.66-4.83-10.84-4.69-3.72-12.53-11.71-12.53-23.59a28.35,28.35,0,1,1,56.7,0c0,11.88-7.84,19.87-12.52,23.59-4,3.18-5.81,7.15-4.83,10.84a8.5,8.5,0,0,0,7,6.15c11.27,1.9,20.29-9.17,23.89-14.45l.22,4.59a2,2,0,0,0,1.95,1.87h.11a2,2,0,0,0,1.85-2l-.56-11.32A2.45,2.45,0,0,0,142.61,99.06Z"/><path class="b" d="M81.3,135.55v0A6.79,6.79,0,0,1,82.37,132l10.11-16.59a6.9,6.9,0,0,1,.9-1.16,6.42,6.42,0,0,1,4.68-2,6.54,6.54,0,0,1,5.58,3.2l10.11,16.48a7.05,7.05,0,0,1,.24,6.92,7.43,7.43,0,0,1-1.11,1.56,6.46,6.46,0,0,1-4.7,2,5.72,5.72,0,0,1-4.11-1.78l-3.38-3.53-.15-.16a3.62,3.62,0,0,0-5.12.15L92,140.62a5.66,5.66,0,0,1-4.11,1.77,6.46,6.46,0,0,1-5.8-3.6,7,7,0,0,1-.83-3.21Zm28.3,0a1.82,1.82,0,0,0-.28-1L99.19,118.07a1.35,1.35,0,0,0-1.15-.69,1.26,1.26,0,0,0-.9.39,2,2,0,0,0-.24.31L86.77,134.7a1.54,1.54,0,0,0-.27.84,1.72,1.72,0,0,0,.22.83l0,.09a1.33,1.33,0,0,0,1.18.74.44.44,0,0,0,.32-.15l3.39-3.56a8.83,8.83,0,0,1,12.46-.34c.12.11.23.23.34.35l3.38,3.53a.53.53,0,0,0,.37.17,1.2,1.2,0,0,0,.88-.39,1.92,1.92,0,0,0,.33-.46A1.65,1.65,0,0,0,109.6,135.56Z"/><circle class="b" cx="98.04" cy="145.93" r="3.54"/></svg>